<svg xmlns="http://www.w3.org/2000/svg" width="225" height="225"><path d="M0 0 C2.3749297 1.64137441 4.03921295 3.00550207 6 5.03515625 C6.5404747 5.56368195 7.0809494 6.09220764 7.63780212 6.63674927 C8.8152682 7.79298747 9.98420955 8.95795663 11.14547729 10.13046265 C13.06974299 12.07030765 15.01889087 13.98203779 16.97485352 15.88989258 C20.48313354 19.32044432 23.96344451 22.77774046 27.43286133 26.24755859 C29.58591605 28.39839189 31.74690951 30.54104319 33.90820312 32.68359375 C35.29475834 34.06721997 36.6808437 35.45131723 38.06640625 36.8359375 C38.70494034 37.46728607 39.34347443 38.09863464 40.00135803 38.74911499 C45.35177642 44.12704207 50.04500127 49.23293258 50.3125 57.1875 C50.36857422 58.26064453 50.36857422 58.26064453 50.42578125 59.35546875 C49.20241229 66.9538246 44.29890594 72.37836517 39.125 77.75 C38.52558594 78.39582031 37.92617187 79.04164062 37.30859375 79.70703125 C33.8080585 83.40499366 30.41899192 86.44909504 26 89 C25.34 89 24.68 89 24 89 C31.66256424 117.25570562 57.03563242 138.4831241 80.859375 153.23828125 C86.62000712 156.64410889 86.62000712 156.64410889 93 158 C93.25136719 157.2575 93.50273437 156.515 93.76171875 155.75 C95.09291381 152.79365514 96.47364137 151.2181145 98.8125 149 C99.52921875 148.31164062 100.2459375 147.62328125 100.984375 146.9140625 C101.64953125 146.28242188 102.3146875 145.65078125 103 145 C103.845625 144.13375 104.69125 143.2675 105.5625 142.375 C115.86857936 132.33317908 115.86857936 132.33317908 123.875 131.6875 C135.64692408 132.08430643 143.51570675 142.35904372 151.296875 150.09375 C152.0529303 150.84410522 152.8089856 151.59446045 153.58795166 152.36755371 C155.17248197 153.94270471 156.75561547 155.51926199 158.33740234 157.09716797 C160.75041219 159.50041052 163.17388838 161.89277036 165.59765625 164.28515625 C167.14388668 165.82486081 168.68948174 167.36520377 170.234375 168.90625 C170.9542157 169.6137439 171.6740564 170.32123779 172.41571045 171.0501709 C177.20845778 175.86423968 181.42159502 180.38922188 182.53125 187.31640625 C182.44644985 196.125022 180.86469447 200.14215513 174.6875 206.375 C173.78644531 207.24318359 173.78644531 207.24318359 172.8671875 208.12890625 C170.29383642 210.7076409 167.98992733 213.48956322 165.67578125 216.30078125 C163.90490218 218.09642786 162.30404558 219.01111769 160 220 C158.70522938 218.73232923 157.41429661 217.46073776 156.125 216.1875 C155.40570313 215.47980469 154.68640625 214.77210938 153.9453125 214.04296875 C152 212 152 212 150 209 C147.49343062 209.37252623 146.30210142 209.64911733 144.62109375 211.6015625 C142.06574753 215.97010819 139.86381534 220.29141387 138 225 C103.70765485 225.77792399 68.10289535 213.32074055 40 194 C39.13375 193.40832031 38.2675 192.81664062 37.375 192.20703125 C12.28146212 174.51754597 -7.37657744 151.9444339 -22 125 C-22.52335937 124.04867187 -23.04671875 123.09734375 -23.5859375 122.1171875 C-34.97221292 100.48928868 -41.6156156 75.49446413 -42.88598633 51.11767578 C-42.9636224 49.67567302 -43.08510264 48.23551865 -43.24487305 46.80029297 C-43.41015625 44.67578125 -43.41015625 44.67578125 -43 41 C-40.41015625 38.828125 -40.41015625 38.828125 -37.0625 37.25 C-32.80779116 35.40066256 -32.80779116 35.40066256 -29.875 32.0625 C-30.0652667 28.92309952 -31.6730962 27.84021889 -33.9375 25.75 C-35.06478516 24.69039062 -35.06478516 24.69039062 -36.21484375 23.609375 C-36.80394531 23.07828125 -37.39304687 22.5471875 -38 22 C-34.18709194 17.33977904 -30.12156448 13.01205346 -25.875 8.75 C-25.3603418 8.23083008 -24.84568359 7.71166016 -24.31542969 7.17675781 C-16.94515195 -0.16493449 -10.31021087 -2.52699154 0 0 Z " fill="#FAFAFA" transform="translate(43,0)"></path></svg>